<svg width="32" height="32" viewBox="0 0 32 32" fill="none" xmlns="http://www.w3.org/2000/svg">
  <!-- Gradient Background -->
  <rect width="32" height="32" rx="8" fill="url(#gradient)"/>
  
  <!-- S Monogram -->
  <path d="M16 8C19.5 8 22 10 22 12.5C22 15 20 16 16.5 16.8L13.5 17.5C11.5 18 10.5 18.8 10.5 20.3C10.5 21.8 12 23 14.5 23C17 23 18.5 21.8 18.5 19.5H22C22 23 19.5 26 14.5 26C9.5 26 7 23.8 7 20.3C7 17.8 9 16.5 12.5 15.7L15.5 15C17.5 14.5 18.5 13.7 18.5 12.2C18.5 10.7 17 9.5 14.5 9.5C12 9.5 10.5 10.7 10.5 13H7C7 9.5 9.5 8 16 8Z" fill="white"/>
  
  <!-- Gradient Definition -->
  <defs>
    <linearGradient id="gradient" x1="0" y1="0" x2="32" y2="32" gradientUnits="userSpaceOnUse">
      <stop offset="0%" stop-color="#2A3342"/>
      <stop offset="100%" stop-color="#1A2232"/>
    </linearGradient>
  </defs>
</svg>